<?xml version="1.0" encoding="utf-8"?>
<!-- Uploaded to: SVG Repo, www.svgrepo.com, Generator: SVG Repo Mixer Tools -->
<svg xmlns="http://www.w3.org/2000/svg" xmlns:xlink="http://www.w3.org/1999/xlink" version="1.1" id="moonstars"  viewBox="0 0 208.1712 194.1436" enable-background="new 0 0 208.1712 194.1436" xml:space="preserve" width="512" height="512">
<g>
	<path fill="#D0E8FF" d="M126.3451,50.1103c5.8535,26.7988-2.7402,55.0547-23.1172,74.0566   c-20.3789,19.0039-49.1719,25.5938-75.4883,17.8965c3.0117,6.0898,6.9043,11.7051,11.625,16.7676   c12.8145,13.7422,30.2129,21.6719,48.9922,22.3281c18.7559,0.6309,36.6895-6.043,50.4316-18.8574   c13.7441-12.8145,21.6738-30.2148,22.3281-48.9941c0.6562-18.7773-6.0391-36.6875-18.8555-50.4297   C137.5423,57.8154,132.2103,53.5419,126.3451,50.1103z"/>
	<path fill="#1C71DA" d="M121.6166,38.7958c-1.4492-0.6191-3.1367-0.3281-4.2988,0.752c-1.1562,1.0801-1.5684,2.7402-1.0508,4.2363   c9.1152,26.3008,1.8555,55.5566-18.4961,74.5312c-20.3496,18.9785-50.0469,24.1816-75.6406,13.252   c-1.4551-0.6172-3.1406-0.3262-4.2988,0.7539c-1.1562,1.0801-1.5684,2.7402-1.0508,4.2363   c3.584,10.3379,9.2129,19.668,16.7324,27.7305c14.2715,15.3047,33.6504,24.1348,54.5645,24.8652   c0.9375,0.0332,1.8691,0.0488,2.8027,0.0488c19.8867,0,38.7461-7.416,53.3652-21.0488   c15.3047-14.2734,24.1367-33.6504,24.8672-54.5664c0.7305-20.9141-6.7285-40.8613-21-56.166   C140.5951,49.3603,131.681,43.0927,121.6166,38.7958z M138.7884,162.3017c-13.7422,12.8145-31.6758,19.4883-50.4316,18.8574   c-18.7793-0.6562-36.1777-8.5859-48.9922-22.3281c-4.7207-5.0625-8.6133-10.6777-11.625-16.7676   c26.3164,7.6973,55.1094,1.1074,75.4883-17.8965c20.377-19.002,28.9707-47.2578,23.1172-74.0566   c5.8652,3.4316,11.1973,7.7051,15.916,12.7676c12.8164,13.7422,19.5117,31.6523,18.8555,50.4297   C160.4623,132.0869,152.5326,149.4872,138.7884,162.3017z"/>
	<path fill="#1C71DA" d="M68.2298,42.6962c0.7812,0.7812,1.8047,1.1719,2.8281,1.1719s2.0469-0.3906,2.8281-1.1719l5.7288-5.7285   l5.7283,5.7285c0.7812,0.7812,1.8047,1.1719,2.8281,1.1719s2.0469-0.3906,2.8281-1.1719c1.5625-1.5625,1.5625-4.0938,0-5.6562   l-5.7278-5.7275l5.5774-5.5771c1.5625-1.5625,1.5625-4.0938,0-5.6562s-4.0938-1.5625-5.6562,0l-5.5774,5.5771l-5.5789-5.5791   c-1.5625-1.5625-4.0938-1.5625-5.6562,0s-1.5625,4.0938,0,5.6562l5.5784,5.5781L68.2298,37.04   C66.6673,38.6025,66.6673,41.1337,68.2298,42.6962z"/>
	<path fill="#1C71DA" d="M206.9994,81.04l-5.7285-5.7285l5.5781-5.5781c1.5625-1.5625,1.5625-4.0938,0-5.6562   s-4.0938-1.5625-5.6562,0l-5.5781,5.5781l-5.5781-5.5781c-1.5625-1.5625-4.0938-1.5625-5.6562,0s-1.5625,4.0938,0,5.6562   l5.5781,5.5781l-5.7285,5.7285c-1.5625,1.5625-1.5625,4.0938,0,5.6562c0.7812,0.7812,1.8047,1.1719,2.8281,1.1719   s2.0469-0.3906,2.8281-1.1719l5.7285-5.7285l5.7285,5.7285c0.7812,0.7812,1.8047,1.1719,2.8281,1.1719s2.0469-0.3906,2.8281-1.1719   C208.5619,85.1337,208.5619,82.6025,206.9994,81.04z"/>
	<path fill="#1C71DA" d="M21.8861,114.6962l5.7285-5.7285l5.7285,5.7285c0.7812,0.7812,1.8047,1.1719,2.8281,1.1719   s2.0469-0.3906,2.8281-1.1719c1.5625-1.5625,1.5625-4.0938,0-5.6562l-5.7285-5.7285l5.5781-5.5781   c1.5625-1.5625,1.5625-4.0938,0-5.6562s-4.0938-1.5625-5.6562,0l-5.5781,5.5781l-5.5781-5.5781   c-1.5625-1.5625-4.0938-1.5625-5.6562,0s-1.5625,4.0938,0,5.6562l5.5781,5.5781l-5.7285,5.7285   c-1.5625,1.5625-1.5625,4.0938,0,5.6562c0.7812,0.7812,1.8047,1.1719,2.8281,1.1719S21.1048,115.4775,21.8861,114.6962z"/>
</g>
<path fill="#FF5D5D" d="M152,22.1436c-1.0239,0-2.0474-0.3906-2.8286-1.1714c-1.562-1.5625-1.562-4.0947,0-5.6572l14.1421-14.1421  c1.5625-1.5615,4.0947-1.5615,5.6572,0c1.562,1.5625,1.562,4.0947,0,5.6572l-14.1421,14.1421  C154.0474,21.753,153.0239,22.1436,152,22.1436z"/>
<path fill="#FF5D5D" d="M166.1421,22.1422c-1.0239,0-2.0474-0.3906-2.8286-1.1714L149.1714,6.8282  c-1.562-1.5625-1.562-4.0952,0-5.6572c1.5635-1.5615,4.0957-1.561,5.6572,0l14.1421,14.1426c1.562,1.5625,1.562,4.0952,0,5.6572  C168.1895,21.7515,167.1655,22.1422,166.1421,22.1422z"/>
<path fill="#00D40B" d="M14,194.1436c-7.7197,0-14-6.2803-14-14s6.2803-14,14-14s14,6.2803,14,14S21.7197,194.1436,14,194.1436z   M14,174.1436c-3.3086,0-6,2.6914-6,6s2.6914,6,6,6s6-2.6914,6-6S17.3086,174.1436,14,174.1436z"/>
<path fill="#FFC504" d="M183.3135,148.7691c-1.0239,0-2.0474-0.3906-2.8286-1.1714l-11.3135-11.3135  c-1.562-1.5625-1.562-4.0947,0-5.6572l11.3135-11.3135c1.5625-1.5615,4.0952-1.5615,5.6567,0l11.314,11.3135  c0.7505,0.7505,1.1719,1.7676,1.1719,2.8286s-0.4214,2.0781-1.1719,2.8286l-11.314,11.3135  C185.3608,148.3785,184.3369,148.7691,183.3135,148.7691z M177.6567,133.4556l5.6567,5.6567l5.6572-5.6567l-5.6572-5.6567  L177.6567,133.4556z"/>
</svg>